<svg width="29" height="25" viewBox="0 0 29 25" fill="none" xmlns="http://www.w3.org/2000/svg">
<path d="M22.75 16.625H20V19.375H22.75M22.75 11.125H20V13.875H22.75M25.5 22.125H14.5V19.375H17.25V16.625H14.5V13.875H17.25V11.125H14.5V8.375H25.5M11.75 5.625H9V2.875H11.75M11.75 11.125H9V8.375H11.75M11.75 16.625H9V13.875H11.75M11.75 22.125H9V19.375H11.75M6.25 5.625H3.5V2.875H6.25M6.25 11.125H3.5V8.375H6.25M6.25 16.625H3.5V13.875H6.25M6.25 22.125H3.5V19.375H6.25M14.5 5.625V0.125H0.75V24.875H28.25V5.625H14.5Z" fill="black"/>
</svg>
